<svg width="44" height="44" viewBox="0 0 44 44" fill="none" xmlns="http://www.w3.org/2000/svg">
<g clip-path="url(#clip0_604_25411)">
<path d="M22 7.62939e-06C9.856 7.62939e-06 0 9.85601 0 22C0 34.144 9.856 44 22 44C34.144 44 44 34.144 44 22C44 9.85601 34.144 7.62939e-06 22 7.62939e-06ZM21.142 36.3C14.652 36.3 10.45 31.438 10.45 24.068C10.45 14.564 17.028 7.67801 24.442 7.67801C28.93 7.67801 31.592 9.94401 31.592 13.002C31.592 16.06 29.304 18.414 27.346 18.414C26.862 18.414 26.62 18.172 26.62 17.776C26.62 16.896 28.028 15.576 28.028 13.09C28.028 11 26.752 9.68001 24.662 9.68001C20.174 9.68001 15.07 14.982 15.07 24.156C15.07 29.568 17.754 33.484 22.088 33.484C25.85 33.484 29.084 30.8 30.954 26.972C31.13 26.642 31.284 26.488 31.46 26.488C31.724 26.488 31.966 26.708 31.966 27.214C31.966 29.436 27.984 36.278 21.098 36.278L21.142 36.3Z" fill="white"/>
</g>
<defs>
<clipPath id="clip0_604_25411">
<rect width="44" height="44" fill="white"/>
</clipPath>
</defs>
</svg>
