<svg width="44" height="60" viewBox="0 0 44 60" fill="none" xmlns="http://www.w3.org/2000/svg">
<path d="M2.27718 4.74291e-07C1.82377 -0.00029219 1.3806 0.134865 1.00452 0.388137C0.628438 0.64141 0.336589 1.00125 0.166398 1.42151C-0.00379255 1.84177 -0.044565 2.30329 0.0493114 2.74688C0.143188 3.19047 0.367433 3.5959 0.693286 3.91119L16.3805 19.116H2.27718C1.67362 19.116 1.09479 19.3557 0.668009 19.7825C0.241231 20.2093 0.00146958 20.7881 0.00146958 21.3917V40.5076C0.00146958 41.2207 0.329171 41.8579 0.844999 42.2766L20.5466 58.6435C20.8791 58.9195 21.2833 59.0951 21.712 59.1498C22.1406 59.2045 22.576 59.136 22.9671 58.9524C23.3583 58.7687 23.6891 58.4775 23.9208 58.1128C24.1525 57.7481 24.2756 57.3249 24.2757 56.8928V42.7834H41.7228C42.1762 42.7836 42.6194 42.6485 42.9955 42.3952C43.3716 42.1419 43.6634 41.7821 43.8336 41.3618C44.0038 40.9416 44.0446 40.4801 43.9507 40.0365C43.8568 39.5929 43.6326 39.1874 43.3067 38.8722L27.6195 23.6674H41.7228C42.3264 23.6674 42.9052 23.4276 43.332 23.0008C43.7588 22.5741 43.9985 21.9952 43.9985 21.3917V2.27571C43.9985 1.67215 43.7588 1.09332 43.332 0.66654C42.9052 0.239762 42.3264 4.74291e-07 41.7228 4.74291e-07H2.27718Z" fill="white"/>
</svg>
