<svg width="44" height="44" viewBox="0 0 44 44" fill="none" xmlns="http://www.w3.org/2000/svg">
<g clip-path="url(#clip0_604_25408)">
<path d="M7.80312 0.550003H36.2312C40.5281 0.550003 44.0344 4.02188 44.0344 8.35313V35.6813C44.0344 39.9781 40.5625 43.4844 36.2312 43.4844H7.80312C3.47187 43.45 0 39.9781 0 35.6469V8.35313C0 4.02188 3.47187 0.550003 7.80312 0.550003Z" fill="white"/>
<path d="M21.2811 26.2281H14.4405L13.0655 30.525C13.0311 30.6969 12.8936 30.8 12.7218 30.7656H9.28427C9.07802 30.7656 9.04364 30.6625 9.07802 30.4219L14.9905 13.4406C15.0593 13.2688 15.0936 13.0625 15.1624 12.8219C15.2311 12.4438 15.2655 12.0313 15.2655 11.6188C15.2311 11.5156 15.3343 11.4469 15.403 11.4125H20.1468C20.2843 11.4125 20.353 11.4813 20.3874 11.55L27.0905 30.4219C27.1593 30.6281 27.0905 30.7313 26.9186 30.7313H23.0686C22.9311 30.7656 22.828 30.6625 22.7593 30.525L21.2811 26.2281ZM15.5061 22.4813H20.1468C20.0436 22.1031 19.9061 21.6219 19.7343 21.175C19.5624 20.6938 19.3905 20.1438 19.253 19.5938C19.0811 19.0094 18.9093 18.4594 18.7374 17.9094C18.5655 17.325 18.3936 16.8094 18.2561 16.2938C18.1186 15.7781 17.9811 15.2969 17.8436 14.85H17.8093C17.6374 15.6406 17.4311 16.4313 17.1905 17.2219C16.9155 18.1156 16.6405 19.0094 16.3311 19.9375C16.0561 20.8656 15.7811 21.725 15.5061 22.4813ZM31.1811 14.6781C30.5624 14.7125 29.978 14.4719 29.5655 14.025C29.153 13.5781 28.9124 12.9594 28.9468 12.3406C28.9124 11.7219 29.153 11.1375 29.5999 10.725C30.0468 10.3125 30.6311 10.0719 31.2155 10.0719C31.9374 10.0719 32.4874 10.2781 32.8999 10.725C33.3124 11.1719 33.5186 11.7563 33.5186 12.3406C33.553 12.9594 33.3124 13.5781 32.8655 14.025C32.4186 14.4719 31.7999 14.7125 31.1811 14.6781ZM29.1186 30.5938V16.4656C29.1186 16.2938 29.1874 16.225 29.3593 16.225H33.003C33.1749 16.225 33.2436 16.3281 33.2436 16.4656V30.5938C33.2436 30.8 33.1749 30.9031 33.003 30.9031H29.3936C29.2218 30.8688 29.1186 30.7656 29.1186 30.5938Z" fill="#1F1F1F"/>
</g>
<defs>
<clipPath id="clip0_604_25408">
<rect width="44" height="44" fill="white"/>
</clipPath>
</defs>
</svg>
