<svg width="120" height="47" viewBox="0 0 120 47" fill="none" xmlns="http://www.w3.org/2000/svg">
<path d="M37.4872 8.59245L31.9774 5.1069C31.5283 4.82279 31.0077 4.67196 30.4763 4.67196L8.10876 4.67196C3.42525 5.2335 3.42525 10.0066 4.6136 11.6912L25.7243 35.767L13.1418 35.767L8.10876 30.1516C8.27186 29.4029 8.54216 27.2457 8.31847 24.6065C8.09478 21.9673 6.12817 19.3889 5.17283 18.4296L2.72622 15.7623C0.992624 14.2461 0 11.5508 0 10.5681L0 8.04118C0.349515 2.84697 5.26603 0.928393 7.40973 0.60083L29.9141 0.60083C30.782 0.60083 31.6011 1.00216 32.1329 1.68798L37.4872 8.59245Z" fill="white"/>
<path d="M5.73029 35.3684L10.4837 40.703H28.7983C33.5517 40.5627 33.8313 35.579 32.2935 33.6838L11.1827 9.608H23.7653L28.7983 15.2234C28.6352 15.9721 28.5047 18.0591 28.7284 20.6983C28.9521 23.3375 30.7789 25.9861 31.7342 26.9454L34.1808 29.6127C35.8585 31.0867 36.7673 33.1223 37.0469 34.9473V37.4742C36.4877 42.9492 31.7342 44.7742 29.4973 44.7742L0.347752 44.7742L5.73029 35.3684Z" fill="white"/>
<path d="M44.6422 17.058C44.6422 16.7629 44.7406 16.6153 44.9373 16.6153C45.12 16.6153 45.2324 16.6856 45.2746 16.8261C45.4151 17.1634 45.5416 17.4585 45.654 17.7115C45.7805 17.9504 45.9773 18.2525 46.2443 18.6179C46.5113 18.9693 46.7994 19.2644 47.1086 19.5033C47.4178 19.7282 47.8113 19.9249 48.2891 20.0935C48.781 20.2622 49.315 20.3465 49.8912 20.3465C50.9452 20.3465 51.7884 20.0725 52.4208 19.5244C53.0673 18.9622 53.3905 18.2314 53.3905 17.332C53.3905 16.6715 53.1727 16.1234 52.737 15.6878C52.3014 15.238 51.8025 14.9218 51.2403 14.7391C50.6782 14.5424 49.9614 14.2894 49.0901 13.9802C48.2329 13.657 47.5302 13.3338 46.9821 13.0106C45.7032 12.2517 45.0638 11.2187 45.0638 9.91174C45.0638 8.66098 45.5135 7.66317 46.4129 6.91833C47.3264 6.15944 48.5069 5.77999 49.9544 5.77999C50.4885 5.77999 51.1209 5.89945 51.8517 6.13836C52.5965 6.36322 52.9759 6.47565 52.99 6.47565C53.0322 6.47565 53.1094 6.44754 53.2219 6.39133C53.3343 6.33511 53.4186 6.307 53.4748 6.307C53.6575 6.307 53.7629 6.36322 53.791 6.47565C54.0862 8.17613 54.2337 9.13177 54.2337 9.34257C54.2337 9.73607 54.1354 9.93282 53.9386 9.93282C53.8121 9.93282 53.7137 9.83445 53.6435 9.6377C53.4748 9.23014 53.3062 8.89989 53.1376 8.64692C52.983 8.39396 52.8705 8.23234 52.8003 8.16207C52.73 8.09181 52.5473 7.92316 52.2522 7.65615C51.4933 6.98157 50.5728 6.64429 49.4907 6.64429C48.6193 6.64429 47.8885 6.85509 47.2983 7.2767C46.7081 7.69831 46.4129 8.26748 46.4129 8.98421C46.4129 9.61662 46.5816 10.1366 46.9189 10.5442C47.2702 10.9517 47.734 11.2679 48.3102 11.4928C48.8864 11.7176 49.4907 11.9284 50.1231 12.1252C50.7555 12.3219 51.423 12.596 52.1257 12.9473C52.8424 13.2986 53.4327 13.7203 53.8964 14.2121C54.4586 14.8164 54.7397 15.5683 54.7397 16.4677C54.7397 17.9434 54.2689 19.1168 53.3273 19.9881C52.3857 20.8454 51.2192 21.274 49.8279 21.274C48.8582 21.274 48.0783 21.2178 47.488 21.1054C46.8978 21.007 46.2935 20.7962 45.6751 20.473C45.4924 20.3606 45.2746 19.8125 45.0216 18.8287C44.7687 17.845 44.6422 17.2547 44.6422 17.058ZM56.3777 6.307C56.3777 6.19458 56.4479 6.10323 56.5885 6.03296C56.7431 5.94864 56.9539 5.87134 57.2209 5.80108C57.502 5.73081 57.7057 5.66757 57.8322 5.61135C58.7176 5.21785 59.2235 5.0211 59.35 5.0211C59.5327 5.0211 59.624 5.18272 59.624 5.50595C59.624 5.57622 59.5959 5.74486 59.5397 6.01188C59.4976 6.2789 59.4765 6.54591 59.4765 6.81293C59.4624 8.07775 59.4413 9.15285 59.4132 10.0382C59.3992 10.9095 59.3851 11.4998 59.3711 11.809C59.357 12.1041 59.343 12.35 59.3289 12.5468C59.3289 12.7435 59.3289 12.8981 59.3289 13.0106C59.3289 13.2776 59.3851 13.4111 59.4976 13.4111C59.5257 13.4111 59.6662 13.2846 59.9192 13.0316C60.1862 12.7646 60.5445 12.5046 60.9943 12.2517C61.458 11.9846 61.9499 11.8511 62.4699 11.8511C63.6082 11.8511 64.4936 12.1884 65.126 12.863C65.7584 13.5376 66.0746 14.5846 66.0746 16.004V19.0606C66.0746 19.2011 66.0887 19.3557 66.1168 19.5244C66.1449 19.679 66.2152 19.8406 66.3276 20.0092C66.44 20.1779 66.5876 20.2692 66.7703 20.2833C67.5292 20.3535 67.9086 20.5011 67.9086 20.726C67.9086 20.9508 67.6908 21.0632 67.2551 21.0632C67.1849 21.0632 66.9108 21.0422 66.433 21C65.9692 20.9719 65.653 20.9578 65.4844 20.9578C65.3579 20.9578 65.0628 20.9719 64.599 21C64.1493 21.0141 63.9033 21.0211 63.8612 21.0211C63.538 21.0211 63.3763 20.9508 63.3763 20.8103C63.3763 20.6557 63.4326 20.5573 63.545 20.5152C63.6715 20.4589 63.805 20.4308 63.9455 20.4308C64.086 20.4308 64.2125 20.3535 64.325 20.1989C64.4514 20.0444 64.5147 19.8054 64.5147 19.4822C64.5147 19.426 64.5147 19.3557 64.5147 19.2714C64.5287 19.1871 64.5358 19.0747 64.5358 18.9341C64.5358 18.7795 64.5358 18.4493 64.5358 17.9434C64.5498 17.4374 64.5568 16.7839 64.5568 15.9829C64.5568 15.1256 64.2968 14.3878 63.7769 13.7694C63.2569 13.137 62.6456 12.8208 61.9429 12.8208C61.2824 12.8208 60.6008 13.0949 59.8981 13.643C59.6451 13.8397 59.4835 14.1629 59.4132 14.6127C59.343 15.0483 59.3078 16.025 59.3078 17.5428V18.0277C59.3078 18.6601 59.357 19.173 59.4554 19.5665C59.5678 19.946 59.7997 20.213 60.151 20.3676C60.2635 20.4098 60.4181 20.4379 60.6148 20.4519C60.8116 20.466 60.9591 20.4941 61.0575 20.5362C61.1699 20.5643 61.2261 20.6346 61.2261 20.747C61.2261 20.9157 61.1489 21 60.9943 21L60.4462 20.9789C60.0808 20.9649 59.7084 20.9508 59.3289 20.9368C58.9635 20.9087 58.7668 20.8946 58.7387 20.8946C58.6403 20.8946 58.3944 20.9157 58.0009 20.9578C57.6074 20.9859 57.3544 21 57.242 21C57.0593 21 56.9187 20.993 56.8204 20.9789C56.736 20.9508 56.6868 20.9297 56.6728 20.9157C56.6728 20.8876 56.6728 20.8454 56.6728 20.7892C56.6728 20.6487 56.7571 20.5573 56.9258 20.5152C57.3333 20.4027 57.5933 20.2271 57.7057 19.9881C57.8322 19.7352 57.8955 19.3698 57.8955 18.892L57.9798 11.7036V10.6706C57.9798 8.54855 57.9236 7.31886 57.8111 6.98158C57.7128 6.68645 57.4738 6.53889 57.0944 6.53889C56.9679 6.53889 56.8766 6.53889 56.8204 6.53889L56.736 6.51781C56.4971 6.51781 56.3777 6.44754 56.3777 6.307ZM69.3403 19.2082C69.3403 18.7022 69.4457 18.2806 69.6565 17.9434C69.8673 17.592 70.1835 17.325 70.6051 17.1423C71.0407 16.9455 71.4905 16.791 71.9542 16.6785C72.418 16.5661 72.9801 16.4537 73.6407 16.3412C73.725 16.3272 73.7882 16.3202 73.8304 16.3202C73.8725 16.3061 73.9288 16.2991 73.999 16.2991C74.0693 16.285 74.1325 16.271 74.1887 16.2569C74.2871 16.2429 74.3504 16.2288 74.3785 16.2148C74.4206 16.2007 74.4558 16.1726 74.4839 16.1304C74.526 16.0742 74.5471 16.004 74.5471 15.9196C74.5471 15.7791 74.5541 15.5894 74.5682 15.3505C74.5822 15.0975 74.5893 14.9218 74.5893 14.8235C74.5893 14.0224 74.3574 13.4462 73.8936 13.0949C73.4298 12.7295 72.9801 12.5468 72.5445 12.5468C71.5326 12.5468 71.0267 12.9684 71.0267 13.8116C71.0267 13.924 71.0407 14.0646 71.0689 14.2332C71.097 14.4019 71.111 14.5143 71.111 14.5705C71.111 14.8516 70.9845 14.9921 70.7316 14.9921C70.6472 14.9921 70.5418 14.9851 70.4154 14.971C70.2889 14.9429 70.1413 14.9078 69.9727 14.8656C69.8181 14.8094 69.6846 14.7251 69.5721 14.6127C69.4738 14.4862 69.4246 14.3386 69.4246 14.17C69.4246 13.6219 69.79 13.1019 70.5208 12.61C71.2656 12.1041 72.0807 11.8511 72.9661 11.8511C73.5704 11.8511 74.0833 11.9214 74.5049 12.0619C74.9266 12.2025 75.2357 12.3641 75.4325 12.5468C75.6433 12.7154 75.8049 12.9473 75.9173 13.2424C76.0298 13.5235 76.093 13.7484 76.1071 13.917C76.1211 14.0716 76.1281 14.2683 76.1281 14.5073C76.1281 15.5191 76.1071 16.3202 76.0649 16.9104C76.0368 17.4866 76.0227 17.9925 76.0227 18.4282C76.0227 18.9482 76.0789 19.3628 76.1914 19.6719C76.3038 19.9671 76.4373 20.1568 76.5919 20.2411C76.7465 20.3254 76.9011 20.3746 77.0557 20.3887C77.2103 20.4027 77.3438 20.4308 77.4562 20.473C77.5686 20.5152 77.6248 20.5995 77.6248 20.726C77.6248 21.0211 77.1821 21.1686 76.2968 21.1686C75.9314 21.1686 75.6152 21.0703 75.3482 20.8735C75.0952 20.6768 74.9125 20.487 74.8001 20.3043C74.6876 20.1076 74.6244 20.0092 74.6103 20.0092C74.5963 20.0092 74.5401 20.0584 74.4417 20.1568C74.3433 20.2411 74.2028 20.3465 74.0201 20.473C73.8515 20.5995 73.6547 20.726 73.4298 20.8524C73.219 20.9789 72.9661 21.0843 72.671 21.1686C72.3899 21.267 72.1088 21.3162 71.8277 21.3162C70.9283 21.3162 70.2748 21.1054 69.8673 20.6838C69.5159 20.3325 69.3403 19.8406 69.3403 19.2082ZM70.9845 18.892C70.9845 19.3698 71.1251 19.7563 71.4061 20.0514C71.6872 20.3325 72.0877 20.473 72.6077 20.473C72.9731 20.473 73.2823 20.4168 73.5353 20.3043C73.8023 20.1919 73.999 20.0654 74.1255 19.9249C74.252 19.7844 74.3504 19.6017 74.4206 19.3768C74.4909 19.1379 74.526 18.9552 74.526 18.8287C74.5401 18.7022 74.5471 18.5336 74.5471 18.3228V16.805C74.5471 16.6785 74.4979 16.6153 74.3995 16.6153C74.3714 16.6153 74.3363 16.6223 74.2941 16.6364C74.252 16.6504 74.2168 16.6575 74.1887 16.6575C73.8655 16.7137 73.6617 16.7488 73.5774 16.7629C73.4931 16.7769 73.2963 16.8191 72.9872 16.8893C72.678 16.9596 72.4602 17.0228 72.3337 17.0791C72.2212 17.1353 72.0526 17.2266 71.8277 17.3531C71.6169 17.4655 71.4624 17.592 71.364 17.7325C71.2797 17.859 71.1953 18.0277 71.111 18.2385C71.0267 18.4352 70.9845 18.6531 70.9845 18.892ZM78.4667 6.307C78.4667 6.19458 78.537 6.10323 78.6775 6.03296C78.8321 5.94864 79.0429 5.87134 79.3099 5.80108C79.591 5.73081 79.7948 5.66757 79.9213 5.61135C80.8066 5.21785 81.3126 5.0211 81.4391 5.0211C81.6218 5.0211 81.7131 5.18272 81.7131 5.50595C81.7131 5.57622 81.685 5.74486 81.6288 6.01188C81.5866 6.2789 81.5655 6.54591 81.5655 6.81293C81.5515 8.07775 81.5304 9.15285 81.5023 10.0382C81.4882 10.9095 81.4742 11.4998 81.4601 11.809C81.4461 12.1041 81.432 12.35 81.418 12.5468C81.418 12.7435 81.418 12.8981 81.418 13.0106C81.418 13.2776 81.4742 13.4111 81.5866 13.4111C81.6147 13.4111 81.7553 13.2846 82.0082 13.0316C82.2752 12.7646 82.6336 12.5046 83.0833 12.2517C83.5471 11.9846 84.039 11.8511 84.5589 11.8511C85.6973 11.8511 86.5827 12.1884 87.2151 12.863C87.8475 13.5376 88.1637 14.5846 88.1637 16.004V19.0606C88.1637 19.2011 88.1777 19.3557 88.2058 19.5244C88.234 19.679 88.3042 19.8406 88.4167 20.0092C88.5291 20.1779 88.6766 20.2692 88.8593 20.2833C89.6182 20.3535 89.9977 20.5011 89.9977 20.726C89.9977 20.9508 89.7798 21.0632 89.3442 21.0632C89.2739 21.0632 88.9999 21.0422 88.5221 21C88.0583 20.9719 87.7421 20.9578 87.5734 20.9578C87.447 20.9578 87.1518 20.9719 86.6881 21C86.2383 21.0141 85.9924 21.0211 85.9503 21.0211C85.627 21.0211 85.4654 20.9508 85.4654 20.8103C85.4654 20.6557 85.5216 20.5573 85.634 20.5152C85.7605 20.4589 85.894 20.4308 86.0346 20.4308C86.1751 20.4308 86.3016 20.3535 86.414 20.1989C86.5405 20.0444 86.6037 19.8054 86.6037 19.4822C86.6037 19.426 86.6037 19.3557 86.6037 19.2714C86.6178 19.1871 86.6248 19.0747 86.6248 18.9341C86.6248 18.7795 86.6248 18.4493 86.6248 17.9434C86.6389 17.4374 86.6459 16.7839 86.6459 15.9829C86.6459 15.1256 86.3859 14.3878 85.8659 13.7694C85.3459 13.137 84.7346 12.8208 84.0319 12.8208C83.3714 12.8208 82.6898 13.0949 81.9871 13.643C81.7342 13.8397 81.5726 14.1629 81.5023 14.6127C81.432 15.0483 81.3969 16.025 81.3969 17.5428V18.0277C81.3969 18.6601 81.4461 19.173 81.5445 19.5665C81.6569 19.946 81.8888 20.213 82.2401 20.3676C82.3525 20.4098 82.5071 20.4379 82.7039 20.4519C82.9006 20.466 83.0482 20.4941 83.1466 20.5362C83.259 20.5643 83.3152 20.6346 83.3152 20.747C83.3152 20.9157 83.2379 21 83.0833 21L82.5352 20.9789C82.1698 20.9649 81.7974 20.9508 81.418 20.9368C81.0526 20.9087 80.8558 20.8946 80.8277 20.8946C80.7294 20.8946 80.4834 20.9157 80.0899 20.9578C79.6964 20.9859 79.4435 21 79.331 21C79.1483 21 79.0078 20.993 78.9094 20.9789C78.8251 20.9508 78.7759 20.9297 78.7619 20.9157C78.7619 20.8876 78.7619 20.8454 78.7619 20.7892C78.7619 20.6487 78.8462 20.5573 79.0148 20.5152C79.4224 20.4027 79.6824 20.2271 79.7948 19.9881C79.9213 19.7352 79.9845 19.3698 79.9845 18.892L80.0688 11.7036V10.6706C80.0688 8.54855 80.0126 7.31886 79.9002 6.98158C79.8018 6.68645 79.5629 6.53889 79.1835 6.53889C79.057 6.53889 78.9656 6.53889 78.9094 6.53889L78.8251 6.51781C78.5862 6.51781 78.4667 6.44754 78.4667 6.307ZM90.4646 6.43349C90.4646 6.307 90.5348 6.19458 90.6754 6.0962C90.8159 5.99783 91.0408 5.89945 91.3499 5.80108C91.6591 5.68865 91.8207 5.63243 91.8348 5.63243C91.9332 5.59027 92.0878 5.52 92.2986 5.42163C92.5234 5.3092 92.7131 5.22488 92.8677 5.16867C93.0223 5.0984 93.1277 5.06326 93.1839 5.06326C93.2542 5.06326 93.3245 5.0984 93.3947 5.16867C93.465 5.23893 93.5001 5.33028 93.5001 5.44271C93.5001 5.56919 93.5001 5.71675 93.5001 5.8854C93.5001 6.03999 93.4931 6.25782 93.4791 6.53889C93.4791 6.8059 93.4791 7.43832 93.4791 8.43612C93.4791 9.43392 93.4791 10.7339 93.4791 12.336C93.4791 12.8419 93.5282 13.0949 93.6266 13.0949C93.6828 13.0949 93.7672 13.0246 93.8796 12.8841C93.992 12.7295 94.1255 12.5679 94.2801 12.3992C94.4488 12.2165 94.765 12.0549 95.2287 11.9144C95.6925 11.7598 96.2687 11.6825 96.9573 11.6825C98.2081 11.6825 99.1778 12.1182 99.8664 12.9895C100.569 13.8608 100.92 14.8797 100.92 16.0461C100.92 16.7066 100.745 17.4726 100.393 18.3439C100.056 19.2011 99.5924 19.8546 99.0021 20.3043C98.187 20.9227 97.2103 21.2319 96.0719 21.2319C95.4957 21.2319 94.9617 21.1335 94.4698 20.9368C93.978 20.726 93.6055 20.5222 93.3526 20.3254C93.1137 20.1146 92.9872 20.0092 92.9731 20.0092C92.9169 20.0092 92.7764 20.2341 92.5515 20.6838C92.3407 21.1335 92.1369 21.3584 91.9402 21.3584C91.7716 21.3584 91.6872 21.267 91.6872 21.0843C91.6872 20.8876 91.7013 20.5573 91.7294 20.0935C91.7575 19.6157 91.7716 19.3698 91.7716 19.3557C91.7716 18.892 91.7997 18.0628 91.8559 16.8683C91.9261 15.6737 91.9613 14.6478 91.9613 13.7905V8.58368C91.9613 7.30481 91.6451 6.66537 91.0127 6.66537H90.8019C90.577 6.66537 90.4646 6.58808 90.4646 6.43349ZM93.4791 18.2174C93.4791 18.5968 93.7531 19.0676 94.3012 19.6298C94.8633 20.1919 95.6152 20.473 96.5568 20.473C97.5265 20.473 98.2643 20.1498 98.7702 19.5033C99.2902 18.8428 99.5502 18.0417 99.5502 17.1001C99.5502 15.9899 99.2129 14.9991 98.5383 14.1278C97.8778 13.2565 96.9784 12.8208 95.8401 12.8208C95.1795 12.8208 94.6174 13.0176 94.1536 13.4111C93.7039 13.7765 93.4791 14.1067 93.4791 14.4019V18.2174ZM102.752 19.2082C102.752 18.7022 102.857 18.2806 103.068 17.9434C103.279 17.592 103.595 17.325 104.017 17.1423C104.452 16.9455 104.902 16.791 105.366 16.6785C105.83 16.5661 106.392 16.4537 107.052 16.3412C107.136 16.3272 107.2 16.3202 107.242 16.3202C107.284 16.3061 107.34 16.2991 107.411 16.2991C107.481 16.285 107.544 16.271 107.6 16.2569C107.699 16.2429 107.762 16.2288 107.79 16.2148C107.832 16.2007 107.867 16.1726 107.895 16.1304C107.938 16.0742 107.959 16.004 107.959 15.9196C107.959 15.7791 107.966 15.5894 107.98 15.3505C107.994 15.0975 108.001 14.9218 108.001 14.8235C108.001 14.0224 107.769 13.4462 107.305 13.0949C106.841 12.7295 106.392 12.5468 105.956 12.5468C104.944 12.5468 104.438 12.9684 104.438 13.8116C104.438 13.924 104.452 14.0646 104.48 14.2332C104.508 14.4019 104.523 14.5143 104.523 14.5705C104.523 14.8516 104.396 14.9921 104.143 14.9921C104.059 14.9921 103.953 14.9851 103.827 14.971C103.7 14.9429 103.553 14.9078 103.384 14.8656C103.23 14.8094 103.096 14.7251 102.984 14.6127C102.885 14.4862 102.836 14.3386 102.836 14.17C102.836 13.6219 103.201 13.1019 103.932 12.61C104.677 12.1041 105.492 11.8511 106.378 11.8511C106.982 11.8511 107.495 11.9214 107.916 12.0619C108.338 12.2025 108.647 12.3641 108.844 12.5468C109.055 12.7154 109.216 12.9473 109.329 13.2424C109.441 13.5235 109.505 13.7484 109.519 13.917C109.533 14.0716 109.54 14.2683 109.54 14.5073C109.54 15.5191 109.519 16.3202 109.476 16.9104C109.448 17.4866 109.434 17.9925 109.434 18.4282C109.434 18.9482 109.49 19.3628 109.603 19.6719C109.715 19.9671 109.849 20.1568 110.003 20.2411C110.158 20.3254 110.313 20.3746 110.467 20.3887C110.622 20.4027 110.755 20.4308 110.868 20.473C110.98 20.5152 111.036 20.5995 111.036 20.726C111.036 21.0211 110.594 21.1686 109.708 21.1686C109.343 21.1686 109.027 21.0703 108.76 20.8735C108.507 20.6768 108.324 20.487 108.212 20.3043C108.099 20.1076 108.036 20.0092 108.022 20.0092C108.008 20.0092 107.952 20.0584 107.853 20.1568C107.755 20.2411 107.614 20.3465 107.432 20.473C107.263 20.5995 107.066 20.726 106.841 20.8524C106.631 20.9789 106.378 21.0843 106.082 21.1686C105.801 21.267 105.52 21.3162 105.239 21.3162C104.34 21.3162 103.686 21.1054 103.279 20.6838C102.927 20.3325 102.752 19.8406 102.752 19.2082ZM104.396 18.892C104.396 19.3698 104.537 19.7563 104.818 20.0514C105.099 20.3325 105.499 20.473 106.019 20.473C106.385 20.473 106.694 20.4168 106.947 20.3043C107.214 20.1919 107.411 20.0654 107.537 19.9249C107.663 19.7844 107.762 19.6017 107.832 19.3768C107.902 19.1379 107.938 18.9552 107.938 18.8287C107.952 18.7022 107.959 18.5336 107.959 18.3228V16.805C107.959 16.6785 107.909 16.6153 107.811 16.6153C107.783 16.6153 107.748 16.6223 107.706 16.6364C107.663 16.6504 107.628 16.6575 107.6 16.6575C107.277 16.7137 107.073 16.7488 106.989 16.7629C106.905 16.7769 106.708 16.8191 106.399 16.8893C106.089 16.9596 105.872 17.0228 105.745 17.0791C105.633 17.1353 105.464 17.2266 105.239 17.3531C105.028 17.4655 104.874 17.592 104.775 17.7325C104.691 17.859 104.607 18.0277 104.523 18.2385C104.438 18.4352 104.396 18.6531 104.396 18.892ZM112.3 20.6838C112.3 20.6135 112.3 20.5573 112.3 20.5152C112.314 20.4589 112.328 20.4168 112.342 20.3887C112.356 20.3465 112.384 20.2903 112.426 20.22C112.468 20.1498 112.511 20.0865 112.553 20.0303C112.595 19.9741 112.658 19.8827 112.743 19.7563C112.841 19.6157 112.932 19.4892 113.017 19.3768C115.588 15.6667 116.874 13.7062 116.874 13.4954C116.874 13.4251 116.713 13.39 116.389 13.39C116.221 13.39 115.785 13.4181 115.082 13.4743C114.394 13.5165 113.972 13.5376 113.818 13.5376C113.565 13.5516 113.347 13.657 113.164 13.8538C112.995 14.0505 112.862 14.2473 112.764 14.444C112.665 14.6408 112.581 14.7391 112.511 14.7391C112.398 14.7391 112.342 14.6618 112.342 14.5073C112.342 14.2543 112.356 13.9943 112.384 13.7273C112.426 13.4603 112.476 13.1862 112.532 12.9052C112.588 12.61 112.616 12.4414 112.616 12.3992C112.644 12.1463 112.785 12.0198 113.038 12.0198C113.08 12.0198 113.199 12.0268 113.396 12.0409C113.593 12.0549 113.86 12.069 114.197 12.083C114.534 12.083 114.9 12.083 115.293 12.083C115.729 12.083 116.284 12.076 116.959 12.0619C117.633 12.0338 118.111 12.0198 118.392 12.0198C118.561 12.0198 118.645 12.09 118.645 12.2306C118.645 12.329 118.603 12.4414 118.519 12.5679C118.448 12.6803 118.357 12.8068 118.245 12.9473C118.132 13.0738 118.062 13.1581 118.034 13.2003C117.443 14.1138 116.776 15.0975 116.031 16.1515C115.3 17.1915 114.766 17.9644 114.429 18.4704C114.106 18.9622 113.944 19.2925 113.944 19.4611C113.944 19.5876 114.288 19.6509 114.977 19.6509C115.132 19.6509 115.328 19.6509 115.567 19.6509C115.806 19.6368 115.954 19.6298 116.01 19.6298C116.375 19.6298 116.685 19.6087 116.938 19.5665C117.19 19.5103 117.38 19.433 117.507 19.3347C117.647 19.2222 117.746 19.1309 117.802 19.0606C117.858 18.9763 117.914 18.8498 117.97 18.6812C118.041 18.5125 118.09 18.4001 118.118 18.3439C118.216 18.1471 118.336 18.0488 118.476 18.0488C118.701 18.0488 118.814 18.1471 118.814 18.3439C118.814 18.4282 118.645 18.8568 118.308 19.6298C118.266 19.7282 118.216 19.8687 118.16 20.0514C118.118 20.2341 118.076 20.3887 118.034 20.5152C118.006 20.6276 117.956 20.733 117.886 20.8314C117.83 20.9157 117.753 20.9578 117.654 20.9578H115.251C115.167 20.9578 114.942 20.9649 114.577 20.9789C114.225 20.9789 113.937 20.9789 113.712 20.9789H113.354C113.115 20.9789 112.946 20.9859 112.848 21H112.7C112.433 21 112.3 20.8946 112.3 20.6838Z" fill="white"/>
<path d="M43.6875 39.5208C43.6875 39.3859 43.7598 39.2944 43.9044 39.2462C44.2127 39.1305 44.4826 38.8752 44.7139 38.4801C44.9451 38.0753 45.5185 36.8756 46.434 34.8807C47.3784 32.8378 48.212 31.0453 48.9347 29.5035C49.0022 29.3589 49.06 29.2674 49.1082 29.2288C49.166 29.1903 49.2527 29.171 49.3684 29.171C49.4551 29.171 49.5129 29.1903 49.5419 29.2288C49.5708 29.2674 49.6334 29.4264 49.7298 29.7058C49.7876 29.8697 49.8358 30.0094 49.8743 30.125C49.9225 30.2407 49.9948 30.4286 50.0911 30.6888C50.1875 30.949 50.2935 31.2188 50.4092 31.4983C50.7175 32.2596 51.2476 33.522 51.9992 35.2855C52.7605 37.0394 53.1749 37.9886 53.2424 38.1331C53.4062 38.4608 53.5893 38.7113 53.7916 38.8848C53.994 39.0486 54.1675 39.1402 54.312 39.1595C54.4662 39.1691 54.5915 39.1932 54.6879 39.2317C54.7939 39.2606 54.8469 39.3329 54.8469 39.4486C54.8469 39.5931 54.7168 39.6654 54.4566 39.6654C54.3506 39.6654 54.1434 39.6509 53.835 39.622C53.5266 39.5931 53.3002 39.5787 53.1556 39.5787C52.9725 39.5787 52.7364 39.5883 52.4473 39.6076C52.1582 39.6268 51.9462 39.6365 51.8113 39.6365C51.5126 39.6365 51.3198 39.6268 51.2331 39.6076C51.156 39.5787 51.1175 39.5208 51.1175 39.4341C51.1175 39.3666 51.156 39.3136 51.2331 39.2751C51.3102 39.2269 51.3921 39.198 51.4788 39.1884C51.5656 39.1691 51.6475 39.1257 51.7246 39.0583C51.8017 38.9812 51.8402 38.88 51.8402 38.7547C51.8402 38.5427 51.7198 38.1091 51.4788 37.4538C51.2379 36.7985 51.0355 36.3166 50.8717 36.0082C50.785 35.8444 50.5874 35.7625 50.2791 35.7625C50.2309 35.7625 50.0189 35.7673 49.643 35.777C49.2672 35.7866 48.8962 35.7914 48.53 35.7914H47.7639C47.3302 35.7914 47.0556 35.8155 46.9399 35.8637C46.8339 35.9119 46.7376 36.0275 46.6508 36.2106C46.593 36.3359 46.4966 36.5383 46.3617 36.8177C46.2268 37.0876 46.1353 37.2755 46.0871 37.3815C46.0389 37.4875 45.9763 37.6272 45.8992 37.8007C45.8317 37.9645 45.7835 38.0994 45.7546 38.2054C45.7353 38.3018 45.7257 38.3885 45.7257 38.4656C45.7257 38.6873 45.7787 38.8559 45.8847 38.9715C46.0004 39.0872 46.1256 39.1546 46.2605 39.1739C46.3955 39.1835 46.5159 39.2076 46.6219 39.2462C46.7376 39.2847 46.7954 39.3522 46.7954 39.4486C46.7954 39.516 46.7809 39.569 46.752 39.6076C46.7231 39.6365 46.6557 39.6509 46.5496 39.6509C46.4918 39.6509 46.3232 39.6461 46.0437 39.6365C45.7739 39.6365 45.5426 39.6365 45.3499 39.6365C45.1379 39.6365 44.8969 39.6461 44.6271 39.6654C44.3669 39.6847 44.1935 39.6943 44.1067 39.6943C43.8273 39.6943 43.6875 39.6365 43.6875 39.5208ZM47.3158 34.7507C47.3158 34.8759 47.3591 34.953 47.4459 34.9819C47.5326 35.0108 47.735 35.0253 48.053 35.0253H48.5011L49.8743 35.0108C50.2502 35.0108 50.4381 34.9338 50.4381 34.7796C50.4381 34.6543 50.202 34.0616 49.7298 33.0016C49.2576 31.9319 48.9588 31.3971 48.8336 31.3971C48.7468 31.3971 48.4722 31.9319 48.0096 33.0016C47.547 34.0616 47.3158 34.6447 47.3158 34.7507ZM55.4182 29.6191C55.4182 29.5613 55.423 29.5179 55.4326 29.489C55.4519 29.4601 55.4856 29.436 55.5338 29.4167C55.582 29.3878 55.635 29.3685 55.6928 29.3589C55.7603 29.3396 55.8615 29.3107 55.9964 29.2722C56.1313 29.224 56.2662 29.171 56.4011 29.1132C56.4782 29.0843 56.5987 29.0313 56.7625 28.9542C56.9263 28.8771 57.0661 28.8192 57.1817 28.7807C57.307 28.7325 57.413 28.7084 57.4997 28.7084C57.6154 28.7084 57.6732 28.8 57.6732 28.9831C57.6732 29.0216 57.6635 29.1373 57.6443 29.33C57.625 29.5131 57.6057 29.7733 57.5864 30.1106C57.5672 30.4382 57.5575 30.7948 57.5575 31.1802V31.9897C57.5575 32.4427 57.5527 32.8281 57.5431 33.1461C57.5334 33.4545 57.5286 33.7099 57.5286 33.9123V38.2199C57.5286 38.4222 57.5431 38.5909 57.572 38.7258C57.6105 38.8511 57.7214 38.9764 57.9045 39.1016C58.0972 39.2173 58.3622 39.2751 58.6995 39.2751C58.7477 39.2751 58.791 39.2992 58.8296 39.3474C58.8681 39.3956 58.8874 39.4437 58.8874 39.4919C58.8874 39.6268 58.738 39.6943 58.4393 39.6943C58.3526 39.6943 58.1261 39.675 57.7599 39.6365C57.4033 39.6076 57.1432 39.5931 56.9793 39.5931C56.7288 39.5931 56.4879 39.6124 56.2566 39.6509C56.0349 39.6895 55.8856 39.7088 55.8085 39.7088C55.741 39.7088 55.6832 39.6895 55.635 39.6509C55.5965 39.622 55.5772 39.5931 55.5772 39.5642C55.5772 39.4871 55.5965 39.4341 55.635 39.4052C55.6832 39.3666 55.7555 39.3377 55.8518 39.3185C55.9578 39.2896 56.0301 39.2655 56.0687 39.2462C56.2325 39.1691 56.3385 39.0631 56.3867 38.9282C56.4349 38.7933 56.459 38.5861 56.459 38.3066C56.459 38.2681 56.4541 38.2102 56.4445 38.1331C56.4445 38.0464 56.4445 37.979 56.4445 37.9308V36.8611C56.4445 36.5045 56.4541 35.5601 56.4734 34.0279C56.4927 32.486 56.5023 31.3826 56.5023 30.7177C56.5023 30.496 56.4638 30.2985 56.3867 30.125C56.3192 29.9419 56.2421 29.8311 56.1554 29.7926C56.0687 29.754 55.8759 29.7347 55.5772 29.7347C55.4712 29.7347 55.4182 29.6962 55.4182 29.6191ZM59.8602 38.4078C59.8602 38.0609 59.9325 37.7718 60.077 37.5405C60.2216 37.2996 60.4384 37.1165 60.7275 36.9912C61.0262 36.8563 61.3346 36.7503 61.6526 36.6732C61.9706 36.5961 62.3561 36.519 62.809 36.4419C62.8668 36.4323 62.9102 36.4274 62.9391 36.4274C62.968 36.4178 63.0066 36.413 63.0548 36.413C63.1029 36.4034 63.1463 36.3937 63.1849 36.3841C63.2523 36.3744 63.2957 36.3648 63.315 36.3552C63.3439 36.3455 63.368 36.3263 63.3872 36.2973C63.4161 36.2588 63.4306 36.2106 63.4306 36.1528C63.4306 36.0564 63.4354 35.9263 63.4451 35.7625C63.4547 35.589 63.4595 35.4686 63.4595 35.4011C63.4595 34.8518 63.3005 34.4567 62.9825 34.2158C62.6645 33.9653 62.3561 33.84 62.0574 33.84C61.3635 33.84 61.0166 34.1291 61.0166 34.7073C61.0166 34.7844 61.0262 34.8808 61.0455 34.9964C61.0648 35.112 61.0744 35.1891 61.0744 35.2277C61.0744 35.4204 60.9877 35.5168 60.8142 35.5168C60.7564 35.5168 60.6841 35.512 60.5974 35.5023C60.5107 35.483 60.4095 35.459 60.2938 35.43C60.1878 35.3915 60.0963 35.3337 60.0192 35.2566C59.9517 35.1699 59.918 35.0687 59.918 34.953C59.918 34.5772 60.1686 34.2206 60.6697 33.8833C61.1804 33.5364 61.7393 33.363 62.3465 33.363C62.7608 33.363 63.1126 33.4111 63.4017 33.5075C63.6908 33.6039 63.9028 33.7147 64.0377 33.84C64.1823 33.9556 64.2931 34.1146 64.3702 34.317C64.4473 34.5097 64.4906 34.6639 64.5003 34.7796C64.5099 34.8856 64.5147 35.0205 64.5147 35.1843C64.5147 35.8782 64.5003 36.4274 64.4714 36.8322C64.4521 37.2273 64.4425 37.5742 64.4425 37.873C64.4425 38.2295 64.481 38.5138 64.5581 38.7258C64.6352 38.9282 64.7267 39.0583 64.8327 39.1161C64.9387 39.1739 65.0447 39.2076 65.1508 39.2173C65.2568 39.2269 65.3483 39.2462 65.4254 39.2751C65.5025 39.304 65.541 39.3618 65.541 39.4486C65.541 39.6509 65.2375 39.7521 64.6304 39.7521C64.3798 39.7521 64.163 39.6847 63.9799 39.5497C63.8064 39.4148 63.6812 39.2847 63.6041 39.1595C63.527 39.0245 63.4836 38.9571 63.474 38.9571C63.4643 38.9571 63.4258 38.9908 63.3583 39.0583C63.2909 39.1161 63.1945 39.1884 63.0692 39.2751C62.9536 39.3618 62.8187 39.4486 62.6645 39.5353C62.5199 39.622 62.3465 39.6943 62.1441 39.7521C61.9514 39.8196 61.7586 39.8533 61.5659 39.8533C60.9491 39.8533 60.501 39.7088 60.2216 39.4196C59.9806 39.1787 59.8602 38.8414 59.8602 38.4078ZM60.9877 38.191C60.9877 38.5186 61.0841 38.7836 61.2768 38.986C61.4695 39.1787 61.7442 39.2751 62.1007 39.2751C62.3513 39.2751 62.5633 39.2366 62.7368 39.1595C62.9198 39.0824 63.0548 38.9956 63.1415 38.8993C63.2282 38.8029 63.2957 38.6776 63.3439 38.5234C63.392 38.3596 63.4161 38.2343 63.4161 38.1476C63.4258 38.0609 63.4306 37.9452 63.4306 37.8007V36.7599C63.4306 36.6732 63.3969 36.6298 63.3294 36.6298C63.3101 36.6298 63.286 36.6346 63.2571 36.6443C63.2282 36.6539 63.2041 36.6587 63.1849 36.6587C62.9632 36.6973 62.8235 36.7214 62.7657 36.731C62.7078 36.7406 62.5729 36.7695 62.3609 36.8177C62.1489 36.8659 61.9995 36.9093 61.9128 36.9478C61.8357 36.9864 61.7201 37.049 61.5659 37.1357C61.4213 37.2128 61.3153 37.2996 61.2479 37.3959C61.1901 37.4827 61.1322 37.5983 61.0744 37.7429C61.0166 37.8778 60.9877 38.0271 60.9877 38.191ZM66.2773 34.0279C66.2773 33.9412 66.3352 33.8785 66.4508 33.84C66.5664 33.7918 66.7399 33.7436 66.9712 33.6954C67.2025 33.6472 67.3952 33.5894 67.5494 33.522C67.6072 33.5027 67.6698 33.4738 67.7373 33.4352C67.8048 33.3967 67.8529 33.3726 67.8819 33.363C67.9204 33.3437 67.9638 33.3292 68.012 33.3196C68.0698 33.31 68.1276 33.3051 68.1854 33.3051C68.3011 33.3051 68.3589 33.4449 68.3589 33.7243C68.3589 33.7918 68.3444 33.9026 68.3155 34.0568C68.2962 34.211 68.2866 34.3025 68.2866 34.3315C68.2866 34.4471 68.3155 34.5049 68.3733 34.5049C68.383 34.5049 68.4119 34.4712 68.4601 34.4037C68.5179 34.3266 68.5902 34.2399 68.6769 34.1435C68.7733 34.0375 68.8889 33.9364 69.0238 33.84C69.1587 33.734 69.337 33.6472 69.5586 33.5798C69.7899 33.5027 70.0453 33.4642 70.3248 33.4642C70.6813 33.4642 70.9897 33.5268 71.2499 33.6521C71.5101 33.7677 71.6884 33.8978 71.7847 34.0424C71.8907 34.1773 71.9775 34.3074 72.0449 34.4326C72.1124 34.5483 72.1557 34.6061 72.175 34.6061C72.1847 34.6061 72.2714 34.5097 72.4352 34.317C72.6087 34.1146 72.8496 33.9171 73.158 33.7243C73.476 33.522 73.8084 33.4208 74.1554 33.4208C74.8588 33.4208 75.3985 33.628 75.7743 34.0424C76.1598 34.4567 76.3863 34.9723 76.4537 35.589C76.5115 36.1576 76.5405 36.7695 76.5405 37.4248V37.8874C76.5405 38.3211 76.5645 38.6343 76.6127 38.827C76.6609 39.0197 76.7717 39.145 76.9452 39.2028C76.9548 39.2028 76.9982 39.2125 77.0753 39.2317C77.1524 39.2414 77.215 39.251 77.2632 39.2606C77.321 39.2703 77.374 39.2944 77.4222 39.3329C77.4704 39.3715 77.4945 39.4196 77.4945 39.4775C77.4945 39.622 77.3355 39.6943 77.0175 39.6943C76.9597 39.6943 76.8103 39.6847 76.5694 39.6654C76.3381 39.6461 76.1694 39.6365 76.0634 39.6365C75.9189 39.6365 75.731 39.6461 75.4997 39.6654C75.278 39.6847 75.119 39.6943 75.0227 39.6943C74.7914 39.6943 74.6758 39.6461 74.6758 39.5497C74.6758 39.4437 74.7769 39.3522 74.9793 39.2751C75.1817 39.198 75.3021 39.1161 75.3407 39.0294C75.3792 38.9234 75.3985 38.7017 75.3985 38.3644V38.1331C75.3985 37.8055 75.3937 37.5212 75.384 37.2803C75.384 37.0297 75.384 36.8033 75.384 36.6009C75.384 36.3889 75.3744 36.2058 75.3551 36.0516C75.3455 35.8974 75.3407 35.7673 75.3407 35.6613C75.3407 35.5457 75.3262 35.4445 75.2973 35.3578C75.2684 35.2614 75.2491 35.1891 75.2395 35.1409C75.2395 35.0928 75.2154 35.0349 75.1672 34.9675C75.119 34.9 75.0901 34.8567 75.0805 34.8374C75.0709 34.8181 75.0323 34.7699 74.9649 34.6928C74.907 34.6157 74.8685 34.5676 74.8492 34.5483C74.5987 34.2495 74.2373 34.1002 73.7651 34.1002C73.5434 34.1002 73.3122 34.158 73.0712 34.2736C72.8303 34.3893 72.6376 34.5097 72.493 34.635C72.3485 34.7507 72.2762 34.8326 72.2762 34.8807C72.2762 34.9097 72.281 34.9771 72.2907 35.0831C72.3099 35.1891 72.3244 35.3819 72.334 35.6613C72.3533 35.9312 72.3629 36.2829 72.3629 36.7165V37.9452C72.3629 38.3885 72.4256 38.7162 72.5509 38.9282C72.6761 39.1305 72.946 39.2606 73.3603 39.3185C73.4567 39.3281 73.5242 39.3618 73.5627 39.4196C73.6013 39.4678 73.6205 39.5112 73.6205 39.5497C73.6205 39.6557 73.529 39.7088 73.3459 39.7088C73.2784 39.7088 73.1242 39.6943 72.8833 39.6654C72.6424 39.6461 72.4448 39.6365 72.2907 39.6365C72.1943 39.6365 71.9582 39.6461 71.5824 39.6654C71.2065 39.6943 71.0042 39.7088 70.9752 39.7088C70.7632 39.7088 70.6572 39.6461 70.6572 39.5208C70.6572 39.4534 70.6765 39.4052 70.7151 39.3763C70.7536 39.3377 70.8452 39.2896 70.9897 39.2317C71.0475 39.2125 71.0909 39.1932 71.1198 39.1739C71.1583 39.1546 71.2017 39.0727 71.2499 38.9282C71.2981 38.7836 71.3222 38.5861 71.3222 38.3355C71.3222 38.297 71.3222 38.2584 71.3222 38.2199C71.3222 38.1813 71.3222 38.1331 71.3222 38.0753C71.3318 38.0079 71.3366 37.8633 71.3366 37.6417C71.3366 37.4104 71.3366 37.1165 71.3366 36.7599C71.3366 36.5479 71.3318 36.3793 71.3222 36.254C71.3222 36.1191 71.3222 36.0323 71.3222 35.9938C71.3222 35.9552 71.3174 35.9263 71.3077 35.9071C71.3077 35.8782 71.3077 35.8589 71.3077 35.8492C71.3077 35.3385 71.1776 34.9289 70.9174 34.6206C70.6572 34.3122 70.2959 34.158 69.8333 34.158C69.4286 34.158 69.0672 34.264 68.7492 34.476C68.4312 34.688 68.2721 34.9338 68.2721 35.2132V35.4156V38.1331C68.2721 38.4801 68.3348 38.7451 68.4601 38.9282C68.5853 39.1113 68.7251 39.2173 68.8793 39.2462C69.0334 39.2655 69.1732 39.2896 69.2985 39.3185C69.4237 39.3474 69.4864 39.3956 69.4864 39.463C69.4864 39.5497 69.4719 39.6076 69.443 39.6365C69.4141 39.6654 69.3274 39.6798 69.1828 39.6798C69.1443 39.6798 68.9901 39.6702 68.7203 39.6509C68.4601 39.6413 68.2095 39.6365 67.9686 39.6365C67.7469 39.6365 67.5108 39.6413 67.2603 39.6509C67.0097 39.6702 66.8652 39.6798 66.8266 39.6798C66.5954 39.6798 66.4797 39.6076 66.4797 39.463C66.4797 39.3956 66.5038 39.3474 66.552 39.3185C66.6098 39.2896 66.6724 39.2703 66.7399 39.2606C66.8074 39.251 66.8796 39.2125 66.9567 39.145C67.0338 39.0679 67.0965 38.9619 67.1446 38.827C67.2217 38.5572 67.2603 37.8248 67.2603 36.6298C67.2603 36.4467 67.2555 36.1576 67.2458 35.7625C67.2458 35.3674 67.2458 35.0687 67.2458 34.8663C67.2458 34.635 67.1928 34.4712 67.0868 34.3748C66.9905 34.2785 66.8796 34.2351 66.7544 34.2447C66.6387 34.2447 66.5279 34.2351 66.4219 34.2158C66.3255 34.1869 66.2773 34.1243 66.2773 34.0279Z" fill="white"/>
</svg>
