<svg width="38" height="45" viewBox="0 0 38 45" fill="none" xmlns="http://www.w3.org/2000/svg">
<path d="M37.4872 7.99162L31.9774 4.50607C31.5283 4.22196 31.0077 4.07113 30.4763 4.07113L8.10876 4.07113C3.42525 4.63267 3.42525 9.40572 4.6136 11.0903L25.7243 35.1662L13.1418 35.1662L8.10876 29.5508C8.27186 28.8021 8.54216 26.6449 8.31847 24.0057C8.09478 21.3664 6.12817 18.788 5.17283 17.8288L2.72622 15.1615C0.992624 13.6453 0 10.9499 0 9.96726L0 7.44035C0.349515 2.24614 5.26603 0.327562 7.40973 0L29.9141 0C30.782 0 31.6011 0.401334 32.1329 1.08715L37.4872 7.99162Z" fill="#0F0F0F"/>
<path d="M5.73029 34.7676L10.4837 40.1022H28.7983C33.5517 39.9618 33.8313 34.9782 32.2935 33.083L11.1827 9.00717H23.7653L28.7983 14.6225C28.6352 15.3712 28.5047 17.4583 28.7284 20.0975C28.9521 22.7367 30.7789 25.3853 31.7342 26.3446L34.1808 29.0119C35.8585 30.4859 36.7673 32.5215 37.0469 34.3465V36.8734C36.4877 42.3483 31.7342 44.1733 29.4973 44.1733L0.347752 44.1733L5.73029 34.7676Z" fill="#0F0F0F"/>
</svg>
