<svg width="44" height="44" viewBox="0 0 44 44" fill="none" xmlns="http://www.w3.org/2000/svg">
<g clip-path="url(#clip0_604_25405)">
<path d="M7.79178 0.550018H36.2082C40.5168 0.550018 44 4.03324 44 8.3418V35.6582C44 39.9668 40.5168 43.45 36.2082 43.45H7.79178C3.48322 43.45 0 39.9668 0 35.6582V8.3418C0 4.03324 3.48322 0.550018 7.79178 0.550018Z" fill="white"/>
<path d="M15.7691 11.4582C15.2191 11.4582 14.6691 11.4582 14.1009 11.4768C13.5323 11.495 13.0006 11.495 12.5056 11.5135C12.0106 11.5318 11.5523 11.5318 11.1123 11.55C10.6906 11.5682 10.3973 11.5682 10.0856 11.5682C9.95734 11.5682 9.90234 11.6414 9.90234 11.77V30.635C9.90234 30.8 9.97556 30.8736 10.1223 30.8736H13.6791C13.8073 30.855 13.8991 30.745 13.8806 30.6168V24.7318C14.2288 24.7318 14.4856 24.7318 14.6691 24.75C14.8523 24.7682 15.1456 24.7682 15.5856 24.7682C17.0891 24.7682 18.4641 24.6032 19.7106 24.145C20.9023 23.705 21.9291 22.935 22.6623 21.9082C23.3957 20.8815 23.7623 19.5799 23.7623 18.0032C23.7623 17.1782 23.6159 16.39 23.3409 15.62C23.0495 14.8355 22.593 14.1228 22.0023 13.53C21.3052 12.8527 20.4659 12.3391 19.5456 12.0264C18.5188 11.6414 17.2723 11.4582 15.7691 11.4582ZM16.1782 15.0693C16.8313 15.0817 17.4673 15.1958 18.0606 15.4364C18.5923 15.6382 19.0323 16.005 19.3441 16.4814C19.6365 16.9745 19.7828 17.5405 19.7659 18.1135C19.7659 18.92 19.5823 19.5435 19.1973 20.0018C18.7938 20.46 18.2806 20.8085 17.6941 20.9735C17.0156 21.1935 16.3006 21.3032 15.5856 21.3032H14.6138C14.3938 21.3032 14.1559 21.285 13.8991 21.2668V15.1068C14.0273 15.0882 14.2841 15.07 14.6509 15.0886C14.9991 15.07 15.4206 15.07 15.8973 15.07C15.9913 15.0677 16.0849 15.0675 16.1782 15.0693ZM31.5541 16.0053C30.2523 16.0053 29.1706 16.2068 28.3091 16.6468C27.5209 17.0135 26.8423 17.6 26.3841 18.3332C25.9809 19.0118 25.7606 19.7632 25.7606 20.5518C25.7449 21.2003 25.8898 21.8427 26.1823 22.4218C26.5252 23.0383 27.0013 23.5707 27.5759 23.98C28.3824 24.5316 29.2576 24.9754 30.1791 25.3C31.0773 25.6482 31.6823 25.9232 31.9759 26.1614C32.2691 26.4 32.4159 26.6382 32.4159 26.895C32.4159 27.225 32.2141 27.5368 31.9209 27.665C31.5909 27.83 31.0959 27.9218 30.3991 27.9218C29.6659 27.9218 28.9323 27.83 28.2356 27.6468C27.4355 27.4681 26.6684 27.165 25.9623 26.7486C25.9073 26.7118 25.8523 26.6936 25.7973 26.7303C25.7423 26.7668 25.7241 26.84 25.7241 26.895V30.085C25.7059 30.2318 25.7973 30.36 25.9259 30.4332C26.5204 30.7109 27.1493 30.9083 27.7959 31.02C28.6209 31.185 29.4456 31.2582 30.2888 31.2582C31.6088 31.2582 32.7091 31.0568 33.6073 30.6718C34.4323 30.3418 35.1473 29.7736 35.6606 29.04C36.1412 28.3188 36.3906 27.4683 36.3756 26.6018C36.3936 25.9472 36.2488 25.2983 35.9541 24.7135C35.6056 24.09 35.1106 23.5768 34.5056 23.1918C33.6205 22.636 32.6729 22.1867 31.6823 21.8532C31.24 21.6701 30.8057 21.4683 30.3806 21.2482C30.1423 21.12 29.9223 20.955 29.7573 20.7532C29.6473 20.6064 29.5741 20.4418 29.5741 20.2768C29.5741 20.1118 29.6291 19.9286 29.7206 19.7818C29.8491 19.5986 30.0506 19.47 30.2888 19.415C30.6373 19.3235 31.0223 19.2682 31.3888 19.2864C32.0856 19.2864 32.7638 19.3782 33.4423 19.525C34.0659 19.6532 34.6523 19.855 35.2023 20.1485C35.2756 20.185 35.3673 20.185 35.5323 20.1485C35.561 20.1273 35.5842 20.0996 35.6002 20.0677C35.6161 20.0358 35.6243 20.0006 35.6241 19.965V16.9768C35.6241 16.9032 35.6056 16.83 35.5873 16.7568C35.5506 16.6836 35.4773 16.61 35.4041 16.5918C34.8985 16.3851 34.3687 16.2434 33.8273 16.17C33.0746 16.0604 32.3148 16.0056 31.5541 16.0053Z" fill="#1F1F1F"/>
</g>
<defs>
<clipPath id="clip0_604_25405">
<rect width="44" height="44" fill="white"/>
</clipPath>
</defs>
</svg>
