<svg width="44" height="44" viewBox="0 0 44 44" fill="none" xmlns="http://www.w3.org/2000/svg">
<g clip-path="url(#clip0_604_25402)">
<path d="M7.79178 0.550049H36.2082C40.5168 0.550049 44 4.03327 44 8.34183V35.6583C44 39.9668 40.5168 43.45 36.2082 43.45H7.79178C3.48322 43.45 0 39.9668 0 35.6583V8.34183C0 4.03327 3.48322 0.550049 7.79178 0.550049Z" fill="white"/>
<path d="M23.1372 11.8251L17.6372 20.9001L23.5036 30.5251C23.5404 30.5983 23.5586 30.6718 23.5404 30.7451C23.5222 30.8183 23.4486 30.7633 23.3386 30.7818H19.1404C18.8472 30.7818 18.6454 30.7633 18.5172 30.5801C18.1322 29.8101 17.7286 29.0583 17.3436 28.2883C16.9586 27.5368 16.5372 26.7668 16.0972 25.9783C15.6572 25.1897 15.2172 24.4018 14.7772 23.5951H14.7404C14.3554 24.3833 13.9336 25.1718 13.5122 25.9601C13.0932 26.7405 12.6776 27.5228 12.2654 28.3068C11.8436 29.0768 11.4222 29.8651 11.0004 30.6168C10.9272 30.8001 10.7804 30.8183 10.5786 30.8183H6.54538C6.47216 30.8183 6.41716 30.8551 6.41716 30.7633C6.40895 30.729 6.40795 30.6934 6.41422 30.6587C6.42049 30.6241 6.4339 30.5911 6.45359 30.5618L12.1554 21.2118L6.60038 11.8068C6.54538 11.7333 6.52716 11.6601 6.56359 11.6233C6.60038 11.5683 6.67359 11.5501 6.74716 11.5501H10.9086C11.0004 11.5501 11.0922 11.5683 11.1654 11.5868C11.2386 11.6233 11.2936 11.6783 11.3486 11.7518C11.6972 12.5401 12.1004 13.3283 12.5222 14.1168C12.9622 14.9051 13.3836 15.6751 13.8422 16.4451C14.2822 17.2151 14.6854 17.9851 15.0704 18.7733H15.1072C15.4922 17.9668 15.8954 17.1783 16.2986 16.4083C16.7018 15.6383 17.1236 14.8683 17.5454 14.0983C17.9672 13.3283 18.3704 12.5401 18.7736 11.7883C18.7922 11.7151 18.8286 11.6418 18.8836 11.6051C18.9572 11.5683 19.0304 11.5501 19.1222 11.5683H22.9904C23.0121 11.5634 23.0345 11.5628 23.0564 11.5666C23.0784 11.5704 23.0993 11.5786 23.1181 11.5905C23.1368 11.6025 23.153 11.618 23.1657 11.6363C23.1785 11.6545 23.1874 11.6751 23.1922 11.6968C23.2104 11.7151 23.1736 11.7883 23.1372 11.8251ZM31.6072 31.1668C30.2504 31.1851 28.8936 30.9101 27.6654 30.3418C26.5104 29.8101 25.5572 28.9301 24.8972 27.8483C24.2186 26.7301 23.8886 25.3368 23.8886 23.6683C23.8704 22.3118 24.2186 20.9733 24.8972 19.8001C25.5936 18.6083 26.6022 17.6183 27.8122 16.9583C29.0954 16.2433 30.6354 15.8951 32.4504 15.8951C32.5422 15.8951 32.6704 15.8951 32.8354 15.9133C33.0004 15.9318 33.1836 15.9318 33.4036 15.9501V10.1568C33.4036 10.0283 33.4586 9.95506 33.5872 9.95506H37.3086C37.4004 9.93684 37.4736 10.0101 37.4922 10.0833V27.5733C37.4922 27.9033 37.5104 28.2701 37.5286 28.6733C37.5654 29.0583 37.5836 29.4251 37.6022 29.7368C37.6022 29.8651 37.5472 29.9751 37.4186 30.0301C36.4584 30.4337 35.4561 30.7289 34.4304 30.9101C33.4954 31.0751 32.5604 31.1668 31.6072 31.1668ZM33.4036 27.5001V19.4333C33.2386 19.3968 33.0736 19.3601 32.9086 19.3418C32.7076 19.3202 32.5057 19.308 32.3036 19.3051C31.5886 19.3051 30.8736 19.4518 30.2322 19.7818C29.6056 20.0939 29.0692 20.5608 28.6736 21.1383C28.2704 21.7251 28.0686 22.5133 28.0686 23.4668C28.053 24.1102 28.1587 24.7508 28.3804 25.3551C28.5636 25.8501 28.8386 26.2901 29.2054 26.6568C29.5587 26.9943 29.9855 27.2453 30.4522 27.3901C30.9472 27.5551 31.4604 27.6283 31.9736 27.6283C32.2486 27.6283 32.5054 27.6101 32.7436 27.5918C32.9822 27.6101 33.1836 27.5733 33.4036 27.5001Z" fill="#1F1F1F"/>
</g>
<defs>
<clipPath id="clip0_604_25402">
<rect width="44" height="44" fill="white"/>
</clipPath>
</defs>
</svg>
